<?xml version="1.0" encoding="UTF-8" standalone="no"?>
<!DOCTYPE svg PUBLIC "-//W3C//DTD SVG 1.1//EN"
 "http://www.w3.org/Graphics/SVG/1.1/DTD/svg11.dtd">
<!-- Generated by graphviz version 2.40.1 (20161225.0304)
 -->
<!-- Title: alerts Pages: 1 -->
<svg width="550pt" height="465pt"
 viewBox="0.00 0.00 550.00 465.00" xmlns="http://www.w3.org/2000/svg" xmlns:xlink="http://www.w3.org/1999/xlink">
<g id="graph0" class="graph" transform="scale(1 1) rotate(0) translate(4 461)">
<title>alerts</title>
<polygon fill="#ffffff" stroke="transparent" points="-4,4 -4,-461 546,-461 546,4 -4,4"/>
<!-- alerts -->
<g id="node1" class="node">
<title>alerts</title>
<polygon fill="#efefef" stroke="transparent" points="46,-375.5 46,-410.5 496,-410.5 496,-375.5 46,-375.5"/>
<polygon fill="none" stroke="#000000" points="46,-375.5 46,-410.5 496,-410.5 496,-375.5 46,-375.5"/>
<text text-anchor="start" x="185.2155" y="-388.3" font-family="Arial Bold" font-size="18.00" fill="#000000">alerts</text>
<text text-anchor="start" x="229.2165" y="-388.3" font-family="Arial" font-size="14.00" fill="#000000">    </text>
<text text-anchor="start" x="263.4213" y="-388.3" font-family="Arial" font-size="14.00" fill="#666666">[BASE TABLE]</text>
<polygon fill="none" stroke="#000000" points="46,-345.5 46,-375.5 496,-375.5 496,-345.5 46,-345.5"/>
<text text-anchor="start" x="53" y="-356.9" font-family="Arial" font-size="14.00" fill="#000000">org_id </text>
<text text-anchor="start" x="95.7882" y="-356.9" font-family="Arial" font-size="14.00" fill="#666666">[varchar(16)]</text>
<polygon fill="none" stroke="#000000" points="46,-315.5 46,-345.5 496,-345.5 496,-315.5 46,-315.5"/>
<text text-anchor="start" x="53" y="-326.9" font-family="Arial" font-size="14.00" fill="#000000">id </text>
<text text-anchor="start" x="67.7798" y="-326.9" font-family="Arial" font-size="14.00" fill="#666666">[varchar(16)]</text>
<polygon fill="none" stroke="#000000" points="46,-285.5 46,-315.5 496,-315.5 496,-285.5 46,-285.5"/>
<text text-anchor="start" x="53" y="-296.9" font-family="Arial" font-size="14.00" fill="#000000">status </text>
<text text-anchor="start" x="94.237" y="-296.9" font-family="Arial" font-size="14.00" fill="#666666">[enum(&#39;OK&#39;,&#39;CRITICAL&#39;,&#39;WARNING&#39;,&#39;UNKNOWN&#39;)]</text>
<polygon fill="none" stroke="#000000" points="46,-255.5 46,-285.5 496,-285.5 496,-255.5 46,-255.5"/>
<text text-anchor="start" x="53" y="-266.9" font-family="Arial" font-size="14.00" fill="#000000">monitor_id </text>
<text text-anchor="start" x="122.2286" y="-266.9" font-family="Arial" font-size="14.00" fill="#666666">[varchar(16)]</text>
<polygon fill="none" stroke="#000000" points="46,-225.5 46,-255.5 496,-255.5 496,-225.5 46,-225.5"/>
<text text-anchor="start" x="52.516" y="-236.9" font-family="Arial" font-size="14.00" fill="#000000">type </text>
<text text-anchor="start" x="82.8624" y="-236.9" font-family="Arial" font-size="14.00" fill="#666666">[enum(&#39;connectivity&#39;,&#39;host&#39;,&#39;service&#39;,&#39;external&#39;,&#39;check&#39;,&#39;expression&#39;)]</text>
<polygon fill="none" stroke="#000000" points="46,-195.5 46,-225.5 496,-225.5 496,-195.5 46,-195.5"/>
<text text-anchor="start" x="53" y="-206.9" font-family="Arial" font-size="14.00" fill="#000000">host_id </text>
<text text-anchor="start" x="102.0182" y="-206.9" font-family="Arial" font-size="14.00" fill="#666666">[varchar(16)]</text>
<polygon fill="none" stroke="#000000" points="46,-165.5 46,-195.5 496,-195.5 496,-165.5 46,-165.5"/>
<text text-anchor="start" x="53" y="-176.9" font-family="Arial" font-size="14.00" fill="#000000">value </text>
<text text-anchor="start" x="90.345" y="-176.9" font-family="Arial" font-size="14.00" fill="#666666">[double]</text>
<polygon fill="none" stroke="#000000" points="46,-135.5 46,-165.5 496,-165.5 496,-135.5 46,-135.5"/>
<text text-anchor="start" x="53" y="-146.9" font-family="Arial" font-size="14.00" fill="#000000">message </text>
<text text-anchor="start" x="113.6816" y="-146.9" font-family="Arial" font-size="14.00" fill="#666666">[text]</text>
<polygon fill="none" stroke="#000000" points="46,-105.5 46,-135.5 496,-135.5 496,-105.5 46,-105.5"/>
<text text-anchor="start" x="53" y="-116.9" font-family="Arial" font-size="14.00" fill="#000000">reason </text>
<text text-anchor="start" x="99.6816" y="-116.9" font-family="Arial" font-size="14.00" fill="#666666">[text]</text>
<polygon fill="none" stroke="#000000" points="46,-75.5 46,-105.5 496,-105.5 496,-75.5 46,-75.5"/>
<text text-anchor="start" x="53" y="-86.9" font-family="Arial" font-size="14.00" fill="#000000">opened_at </text>
<text text-anchor="start" x="123.042" y="-86.9" font-family="Arial" font-size="14.00" fill="#666666">[bigint]</text>
<polygon fill="none" stroke="#000000" points="46,-45.5 46,-75.5 496,-75.5 496,-45.5 46,-45.5"/>
<text text-anchor="start" x="53" y="-56.9" font-family="Arial" font-size="14.00" fill="#000000">closed_at </text>
<text text-anchor="start" x="116.8008" y="-56.9" font-family="Arial" font-size="14.00" fill="#666666">[bigint]</text>
<polygon fill="none" stroke="#000000" stroke-width="3" points="44.5,-44.5 44.5,-412.5 497.5,-412.5 497.5,-44.5 44.5,-44.5"/>
</g>
</g>
</svg>
