<?xml version="1.0" encoding="UTF-8" standalone="no"?>
<!DOCTYPE svg PUBLIC "-//W3C//DTD SVG 1.1//EN"
 "http://www.w3.org/Graphics/SVG/1.1/DTD/svg11.dtd">
<!-- Generated by graphviz version 2.40.1 (20161225.0304)
 -->
<!-- Title: channel_emails Pages: 1 -->
<svg width="366pt" height="225pt"
 viewBox="0.00 0.00 366.00 225.00" xmlns="http://www.w3.org/2000/svg" xmlns:xlink="http://www.w3.org/1999/xlink">
<g id="graph0" class="graph" transform="scale(1 1) rotate(0) translate(4 221)">
<title>channel_emails</title>
<polygon fill="#ffffff" stroke="transparent" points="-4,4 -4,-221 362,-221 362,4 -4,4"/>
<!-- channel_emails -->
<g id="node1" class="node">
<title>channel_emails</title>
<polygon fill="#efefef" stroke="transparent" points="46,-135.5 46,-170.5 312,-170.5 312,-135.5 46,-135.5"/>
<polygon fill="none" stroke="#000000" points="46,-135.5 46,-170.5 312,-170.5 312,-135.5 46,-135.5"/>
<text text-anchor="start" x="52.7038" y="-148.3" font-family="Arial Bold" font-size="18.00" fill="#000000">channel_emails</text>
<text text-anchor="start" x="177.7282" y="-148.3" font-family="Arial" font-size="14.00" fill="#000000">    </text>
<text text-anchor="start" x="211.933" y="-148.3" font-family="Arial" font-size="14.00" fill="#666666">[BASE TABLE]</text>
<polygon fill="none" stroke="#000000" points="46,-105.5 46,-135.5 312,-135.5 312,-105.5 46,-105.5"/>
<text text-anchor="start" x="53" y="-116.9" font-family="Arial" font-size="14.00" fill="#000000">org_id </text>
<text text-anchor="start" x="95.7882" y="-116.9" font-family="Arial" font-size="14.00" fill="#666666">[varchar(16)]</text>
<polygon fill="none" stroke="#000000" points="46,-75.5 46,-105.5 312,-105.5 312,-75.5 46,-75.5"/>
<text text-anchor="start" x="53" y="-86.9" font-family="Arial" font-size="14.00" fill="#000000">channel_id </text>
<text text-anchor="start" x="124.582" y="-86.9" font-family="Arial" font-size="14.00" fill="#666666">[varchar(16)]</text>
<polygon fill="none" stroke="#000000" points="46,-45.5 46,-75.5 312,-75.5 312,-45.5 46,-45.5"/>
<text text-anchor="start" x="53" y="-56.9" font-family="Arial" font-size="14.00" fill="#000000">email </text>
<text text-anchor="start" x="90.3296" y="-56.9" font-family="Arial" font-size="14.00" fill="#666666">[varchar(128)]</text>
<polygon fill="none" stroke="#000000" stroke-width="3" points="44.5,-44.5 44.5,-172.5 313.5,-172.5 313.5,-44.5 44.5,-44.5"/>
</g>
</g>
</svg>
