<?xml version="1.0" encoding="UTF-8" standalone="no"?>
<!DOCTYPE svg PUBLIC "-//W3C//DTD SVG 1.1//EN"
 "http://www.w3.org/Graphics/SVG/1.1/DTD/svg11.dtd">
<!-- Generated by graphviz version 2.40.1 (20161225.0304)
 -->
<!-- Title: check_reports Pages: 1 -->
<svg width="469pt" height="405pt"
 viewBox="0.00 0.00 469.00 405.00" xmlns="http://www.w3.org/2000/svg" xmlns:xlink="http://www.w3.org/1999/xlink">
<g id="graph0" class="graph" transform="scale(1 1) rotate(0) translate(4 401)">
<title>check_reports</title>
<polygon fill="#ffffff" stroke="transparent" points="-4,4 -4,-401 465,-401 465,4 -4,4"/>
<!-- check_reports -->
<g id="node1" class="node">
<title>check_reports</title>
<polygon fill="#efefef" stroke="transparent" points="46.5,-315.5 46.5,-350.5 415.5,-350.5 415.5,-315.5 46.5,-315.5"/>
<polygon fill="none" stroke="#000000" points="46.5,-315.5 46.5,-350.5 415.5,-350.5 415.5,-315.5 46.5,-315.5"/>
<text text-anchor="start" x="110.7041" y="-328.3" font-family="Arial Bold" font-size="18.00" fill="#000000">check_reports</text>
<text text-anchor="start" x="223.7279" y="-328.3" font-family="Arial" font-size="14.00" fill="#000000">    </text>
<text text-anchor="start" x="257.9327" y="-328.3" font-family="Arial" font-size="14.00" fill="#666666">[BASE TABLE]</text>
<polygon fill="none" stroke="#000000" points="46.5,-285.5 46.5,-315.5 415.5,-315.5 415.5,-285.5 46.5,-285.5"/>
<text text-anchor="start" x="53.5" y="-296.9" font-family="Arial" font-size="14.00" fill="#000000">org_id </text>
<text text-anchor="start" x="96.2882" y="-296.9" font-family="Arial" font-size="14.00" fill="#666666">[varchar(16)]</text>
<polygon fill="none" stroke="#000000" points="46.5,-255.5 46.5,-285.5 415.5,-285.5 415.5,-255.5 46.5,-255.5"/>
<text text-anchor="start" x="53.5" y="-266.9" font-family="Arial" font-size="14.00" fill="#000000">host_id </text>
<text text-anchor="start" x="102.5182" y="-266.9" font-family="Arial" font-size="14.00" fill="#666666">[varchar(16)]</text>
<polygon fill="none" stroke="#000000" points="46.5,-225.5 46.5,-255.5 415.5,-255.5 415.5,-225.5 46.5,-225.5"/>
<text text-anchor="start" x="53.5" y="-236.9" font-family="Arial" font-size="14.00" fill="#000000">type </text>
<text text-anchor="start" x="83.8464" y="-236.9" font-family="Arial" font-size="14.00" fill="#666666">[enum(&#39;host&#39;)]</text>
<polygon fill="none" stroke="#000000" points="46.5,-195.5 46.5,-225.5 415.5,-225.5 415.5,-195.5 46.5,-195.5"/>
<text text-anchor="start" x="53.5" y="-206.9" font-family="Arial" font-size="14.00" fill="#000000">name </text>
<text text-anchor="start" x="92.399" y="-206.9" font-family="Arial" font-size="14.00" fill="#666666">[varchar(128)]</text>
<polygon fill="none" stroke="#000000" points="46.5,-165.5 46.5,-195.5 415.5,-195.5 415.5,-165.5 46.5,-165.5"/>
<text text-anchor="start" x="53.3596" y="-176.9" font-family="Arial" font-size="14.00" fill="#000000">status </text>
<text text-anchor="start" x="94.5966" y="-176.9" font-family="Arial" font-size="14.00" fill="#666666">[enum(&#39;OK&#39;,&#39;CRITICAL&#39;,&#39;WARNING&#39;,&#39;UNKNOWN&#39;)]</text>
<polygon fill="none" stroke="#000000" points="46.5,-135.5 46.5,-165.5 415.5,-165.5 415.5,-135.5 46.5,-135.5"/>
<text text-anchor="start" x="53.5" y="-146.9" font-family="Arial" font-size="14.00" fill="#000000">message </text>
<text text-anchor="start" x="114.1816" y="-146.9" font-family="Arial" font-size="14.00" fill="#666666">[text]</text>
<polygon fill="none" stroke="#000000" points="46.5,-105.5 46.5,-135.5 415.5,-135.5 415.5,-105.5 46.5,-105.5"/>
<text text-anchor="start" x="53.5" y="-116.9" font-family="Arial" font-size="14.00" fill="#000000">occurred_at </text>
<text text-anchor="start" x="131.298" y="-116.9" font-family="Arial" font-size="14.00" fill="#666666">[bigint]</text>
<polygon fill="none" stroke="#000000" points="46.5,-75.5 46.5,-105.5 415.5,-105.5 415.5,-75.5 46.5,-75.5"/>
<text text-anchor="start" x="53.5" y="-86.9" font-family="Arial" font-size="14.00" fill="#000000">notification_interval </text>
<text text-anchor="start" x="177.19" y="-86.9" font-family="Arial" font-size="14.00" fill="#666666">[bigint]</text>
<polygon fill="none" stroke="#000000" points="46.5,-45.5 46.5,-75.5 415.5,-75.5 415.5,-45.5 46.5,-45.5"/>
<text text-anchor="start" x="53.5" y="-56.9" font-family="Arial" font-size="14.00" fill="#000000">max_check_attempts </text>
<text text-anchor="start" x="189.6444" y="-56.9" font-family="Arial" font-size="14.00" fill="#666666">[bigint]</text>
<polygon fill="none" stroke="#000000" stroke-width="3" points="44.5,-44.5 44.5,-352.5 416.5,-352.5 416.5,-44.5 44.5,-44.5"/>
</g>
</g>
</svg>
