<?xml version="1.0" encoding="UTF-8" standalone="no"?>
<!DOCTYPE svg PUBLIC "-//W3C//DTD SVG 1.1//EN"
 "http://www.w3.org/Graphics/SVG/1.1/DTD/svg11.dtd">
<!-- Generated by graphviz version 2.40.1 (20161225.0304)
 -->
<!-- Title: downtimes Pages: 1 -->
<svg width="327pt" height="525pt"
 viewBox="0.00 0.00 327.00 525.00" xmlns="http://www.w3.org/2000/svg" xmlns:xlink="http://www.w3.org/1999/xlink">
<g id="graph0" class="graph" transform="scale(1 1) rotate(0) translate(4 521)">
<title>downtimes</title>
<polygon fill="#ffffff" stroke="transparent" points="-4,4 -4,-521 323,-521 323,4 -4,4"/>
<!-- downtimes -->
<g id="node1" class="node">
<title>downtimes</title>
<polygon fill="#efefef" stroke="transparent" points="46.5,-435.5 46.5,-470.5 273.5,-470.5 273.5,-435.5 46.5,-435.5"/>
<polygon fill="none" stroke="#000000" points="46.5,-435.5 46.5,-470.5 273.5,-470.5 273.5,-435.5 46.5,-435.5"/>
<text text-anchor="start" x="53.2122" y="-448.3" font-family="Arial Bold" font-size="18.00" fill="#000000">downtimes</text>
<text text-anchor="start" x="139.2198" y="-448.3" font-family="Arial" font-size="14.00" fill="#000000">    </text>
<text text-anchor="start" x="173.4246" y="-448.3" font-family="Arial" font-size="14.00" fill="#666666">[BASE TABLE]</text>
<polygon fill="none" stroke="#000000" points="46.5,-405.5 46.5,-435.5 273.5,-435.5 273.5,-405.5 46.5,-405.5"/>
<text text-anchor="start" x="53.5" y="-416.9" font-family="Arial" font-size="14.00" fill="#000000">org_id </text>
<text text-anchor="start" x="96.2882" y="-416.9" font-family="Arial" font-size="14.00" fill="#666666">[varchar(16)]</text>
<polygon fill="none" stroke="#000000" points="46.5,-375.5 46.5,-405.5 273.5,-405.5 273.5,-375.5 46.5,-375.5"/>
<text text-anchor="start" x="53.5" y="-386.9" font-family="Arial" font-size="14.00" fill="#000000">id </text>
<text text-anchor="start" x="68.2798" y="-386.9" font-family="Arial" font-size="14.00" fill="#666666">[varchar(128)]</text>
<polygon fill="none" stroke="#000000" points="46.5,-345.5 46.5,-375.5 273.5,-375.5 273.5,-345.5 46.5,-345.5"/>
<text text-anchor="start" x="53.5" y="-356.9" font-family="Arial" font-size="14.00" fill="#000000">name </text>
<text text-anchor="start" x="92.399" y="-356.9" font-family="Arial" font-size="14.00" fill="#666666">[varchar(128)]</text>
<polygon fill="none" stroke="#000000" points="46.5,-315.5 46.5,-345.5 273.5,-345.5 273.5,-315.5 46.5,-315.5"/>
<text text-anchor="start" x="53.5" y="-326.9" font-family="Arial" font-size="14.00" fill="#000000">memo </text>
<text text-anchor="start" x="96.277" y="-326.9" font-family="Arial" font-size="14.00" fill="#666666">[text]</text>
<polygon fill="none" stroke="#000000" points="46.5,-285.5 46.5,-315.5 273.5,-315.5 273.5,-285.5 46.5,-285.5"/>
<text text-anchor="start" x="53.5" y="-296.9" font-family="Arial" font-size="14.00" fill="#000000">start </text>
<text text-anchor="start" x="84.615" y="-296.9" font-family="Arial" font-size="14.00" fill="#666666">[bigint]</text>
<polygon fill="none" stroke="#000000" points="46.5,-255.5 46.5,-285.5 273.5,-285.5 273.5,-255.5 46.5,-255.5"/>
<text text-anchor="start" x="53.5" y="-266.9" font-family="Arial" font-size="14.00" fill="#000000">duration </text>
<text text-anchor="start" x="107.9614" y="-266.9" font-family="Arial" font-size="14.00" fill="#666666">[bigint]</text>
<polygon fill="none" stroke="#000000" points="46.5,-225.5 46.5,-255.5 273.5,-255.5 273.5,-225.5 46.5,-225.5"/>
<text text-anchor="start" x="53.5" y="-236.9" font-family="Arial" font-size="14.00" fill="#000000">recurrence </text>
<text text-anchor="start" x="124.2854" y="-236.9" font-family="Arial" font-size="14.00" fill="#666666">[text]</text>
<polygon fill="none" stroke="#000000" points="46.5,-195.5 46.5,-225.5 273.5,-225.5 273.5,-195.5 46.5,-195.5"/>
<text text-anchor="start" x="53.5" y="-206.9" font-family="Arial" font-size="14.00" fill="#000000">service_scopes </text>
<text text-anchor="start" x="153.8534" y="-206.9" font-family="Arial" font-size="14.00" fill="#666666">[text]</text>
<polygon fill="none" stroke="#000000" points="46.5,-165.5 46.5,-195.5 273.5,-195.5 273.5,-165.5 46.5,-165.5"/>
<text text-anchor="start" x="53.5" y="-176.9" font-family="Arial" font-size="14.00" fill="#000000">service_exclude_scopes </text>
<text text-anchor="start" x="209.873" y="-176.9" font-family="Arial" font-size="14.00" fill="#666666">[text]</text>
<polygon fill="none" stroke="#000000" points="46.5,-135.5 46.5,-165.5 273.5,-165.5 273.5,-135.5 46.5,-135.5"/>
<text text-anchor="start" x="53.5" y="-146.9" font-family="Arial" font-size="14.00" fill="#000000">role_scopes </text>
<text text-anchor="start" x="132.8534" y="-146.9" font-family="Arial" font-size="14.00" fill="#666666">[text]</text>
<polygon fill="none" stroke="#000000" points="46.5,-105.5 46.5,-135.5 273.5,-135.5 273.5,-105.5 46.5,-105.5"/>
<text text-anchor="start" x="53.5" y="-116.9" font-family="Arial" font-size="14.00" fill="#000000">role_exclude_scopes </text>
<text text-anchor="start" x="188.873" y="-116.9" font-family="Arial" font-size="14.00" fill="#666666">[text]</text>
<polygon fill="none" stroke="#000000" points="46.5,-75.5 46.5,-105.5 273.5,-105.5 273.5,-75.5 46.5,-75.5"/>
<text text-anchor="start" x="53.5" y="-86.9" font-family="Arial" font-size="14.00" fill="#000000">monitor_scopes </text>
<text text-anchor="start" x="156.1872" y="-86.9" font-family="Arial" font-size="14.00" fill="#666666">[text]</text>
<polygon fill="none" stroke="#000000" points="46.5,-45.5 46.5,-75.5 273.5,-75.5 273.5,-45.5 46.5,-45.5"/>
<text text-anchor="start" x="53.5" y="-56.9" font-family="Arial" font-size="14.00" fill="#000000">monitor_exclude_scopes </text>
<text text-anchor="start" x="212.2068" y="-56.9" font-family="Arial" font-size="14.00" fill="#666666">[text]</text>
<polygon fill="none" stroke="#000000" stroke-width="3" points="44.5,-44.5 44.5,-472.5 274.5,-472.5 274.5,-44.5 44.5,-44.5"/>
</g>
</g>
</svg>
