<?xml version="1.0" encoding="UTF-8" standalone="no"?>
<!DOCTYPE svg PUBLIC "-//W3C//DTD SVG 1.1//EN"
 "http://www.w3.org/Graphics/SVG/1.1/DTD/svg11.dtd">
<!-- Generated by graphviz version 2.40.1 (20161225.0304)
 -->
<!-- Title: host_meta Pages: 1 -->
<svg width="325pt" height="255pt"
 viewBox="0.00 0.00 325.00 255.00" xmlns="http://www.w3.org/2000/svg" xmlns:xlink="http://www.w3.org/1999/xlink">
<g id="graph0" class="graph" transform="scale(1 1) rotate(0) translate(4 251)">
<title>host_meta</title>
<polygon fill="#ffffff" stroke="transparent" points="-4,4 -4,-251 321,-251 321,4 -4,4"/>
<!-- host_meta -->
<g id="node1" class="node">
<title>host_meta</title>
<polygon fill="#efefef" stroke="transparent" points="46.5,-165.5 46.5,-200.5 271.5,-200.5 271.5,-165.5 46.5,-165.5"/>
<polygon fill="none" stroke="#000000" points="46.5,-165.5 46.5,-200.5 271.5,-200.5 271.5,-165.5 46.5,-165.5"/>
<text text-anchor="start" x="53.2022" y="-178.3" font-family="Arial Bold" font-size="18.00" fill="#000000">host_meta</text>
<text text-anchor="start" x="137.2298" y="-178.3" font-family="Arial" font-size="14.00" fill="#000000">    </text>
<text text-anchor="start" x="171.4346" y="-178.3" font-family="Arial" font-size="14.00" fill="#666666">[BASE TABLE]</text>
<polygon fill="none" stroke="#000000" points="46.5,-135.5 46.5,-165.5 271.5,-165.5 271.5,-135.5 46.5,-135.5"/>
<text text-anchor="start" x="53.5" y="-146.9" font-family="Arial" font-size="14.00" fill="#000000">org_id </text>
<text text-anchor="start" x="96.2882" y="-146.9" font-family="Arial" font-size="14.00" fill="#666666">[varchar(16)]</text>
<polygon fill="none" stroke="#000000" points="46.5,-105.5 46.5,-135.5 271.5,-135.5 271.5,-105.5 46.5,-105.5"/>
<text text-anchor="start" x="53.5" y="-116.9" font-family="Arial" font-size="14.00" fill="#000000">host_id </text>
<text text-anchor="start" x="102.5182" y="-116.9" font-family="Arial" font-size="14.00" fill="#666666">[varchar(16)]</text>
<polygon fill="none" stroke="#000000" points="46.5,-75.5 46.5,-105.5 271.5,-105.5 271.5,-75.5 46.5,-75.5"/>
<text text-anchor="start" x="53.5" y="-86.9" font-family="Arial" font-size="14.00" fill="#000000">namespace </text>
<text text-anchor="start" x="129.7468" y="-86.9" font-family="Arial" font-size="14.00" fill="#666666">[varchar(128)]</text>
<polygon fill="none" stroke="#000000" points="46.5,-45.5 46.5,-75.5 271.5,-75.5 271.5,-45.5 46.5,-45.5"/>
<text text-anchor="start" x="53.5" y="-56.9" font-family="Arial" font-size="14.00" fill="#000000">meta </text>
<text text-anchor="start" x="88.507" y="-56.9" font-family="Arial" font-size="14.00" fill="#666666">[text]</text>
<polygon fill="none" stroke="#000000" stroke-width="3" points="44.5,-44.5 44.5,-202.5 272.5,-202.5 272.5,-44.5 44.5,-44.5"/>
</g>
</g>
</svg>
