<?xml version="1.0" encoding="UTF-8" standalone="no"?>
<!DOCTYPE svg PUBLIC "-//W3C//DTD SVG 1.1//EN"
 "http://www.w3.org/Graphics/SVG/1.1/DTD/svg11.dtd">
<!-- Generated by graphviz version 2.40.1 (20161225.0304)
 -->
<!-- Title: monitors Pages: 1 -->
<svg width="504pt" height="1035pt"
 viewBox="0.00 0.00 504.00 1035.00" xmlns="http://www.w3.org/2000/svg" xmlns:xlink="http://www.w3.org/1999/xlink">
<g id="graph0" class="graph" transform="scale(1 1) rotate(0) translate(4 1031)">
<title>monitors</title>
<polygon fill="#ffffff" stroke="transparent" points="-4,4 -4,-1031 500,-1031 500,4 -4,4"/>
<!-- monitors -->
<g id="node1" class="node">
<title>monitors</title>
<polygon fill="#efefef" stroke="transparent" points="46,-945.5 46,-980.5 450,-980.5 450,-945.5 46,-945.5"/>
<polygon fill="none" stroke="#000000" points="46,-945.5 46,-980.5 450,-980.5 450,-945.5 46,-945.5"/>
<text text-anchor="start" x="149.7163" y="-958.3" font-family="Arial Bold" font-size="18.00" fill="#000000">monitors</text>
<text text-anchor="start" x="218.7157" y="-958.3" font-family="Arial" font-size="14.00" fill="#000000">    </text>
<text text-anchor="start" x="252.9205" y="-958.3" font-family="Arial" font-size="14.00" fill="#666666">[BASE TABLE]</text>
<polygon fill="none" stroke="#000000" points="46,-915.5 46,-945.5 450,-945.5 450,-915.5 46,-915.5"/>
<text text-anchor="start" x="53" y="-926.9" font-family="Arial" font-size="14.00" fill="#000000">org_id </text>
<text text-anchor="start" x="95.7882" y="-926.9" font-family="Arial" font-size="14.00" fill="#666666">[varchar(16)]</text>
<polygon fill="none" stroke="#000000" points="46,-885.5 46,-915.5 450,-915.5 450,-885.5 46,-885.5"/>
<text text-anchor="start" x="53" y="-896.9" font-family="Arial" font-size="14.00" fill="#000000">id </text>
<text text-anchor="start" x="67.7798" y="-896.9" font-family="Arial" font-size="14.00" fill="#666666">[varchar(16)]</text>
<polygon fill="none" stroke="#000000" points="46,-855.5 46,-885.5 450,-885.5 450,-855.5 46,-855.5"/>
<text text-anchor="start" x="52.8365" y="-866.9" font-family="Arial" font-size="14.00" fill="#000000">type </text>
<text text-anchor="start" x="83.1829" y="-866.9" font-family="Arial" font-size="14.00" fill="#666666">[enum(&#39;host&#39;,&#39;connectivity&#39;,&#39;service&#39;,&#39;external&#39;,&#39;expression&#39;)]</text>
<polygon fill="none" stroke="#000000" points="46,-825.5 46,-855.5 450,-855.5 450,-825.5 46,-825.5"/>
<text text-anchor="start" x="53" y="-836.9" font-family="Arial" font-size="14.00" fill="#000000">name </text>
<text text-anchor="start" x="91.899" y="-836.9" font-family="Arial" font-size="14.00" fill="#666666">[varchar(128)]</text>
<polygon fill="none" stroke="#000000" points="46,-795.5 46,-825.5 450,-825.5 450,-795.5 46,-795.5"/>
<text text-anchor="start" x="53" y="-806.9" font-family="Arial" font-size="14.00" fill="#000000">memo </text>
<text text-anchor="start" x="95.777" y="-806.9" font-family="Arial" font-size="14.00" fill="#666666">[varchar(128)]</text>
<polygon fill="none" stroke="#000000" points="46,-765.5 46,-795.5 450,-795.5 450,-765.5 46,-765.5"/>
<text text-anchor="start" x="53" y="-776.9" font-family="Arial" font-size="14.00" fill="#000000">notification_interval </text>
<text text-anchor="start" x="176.69" y="-776.9" font-family="Arial" font-size="14.00" fill="#666666">[bigint]</text>
<polygon fill="none" stroke="#000000" points="46,-735.5 46,-765.5 450,-765.5 450,-735.5 46,-735.5"/>
<text text-anchor="start" x="53" y="-746.9" font-family="Arial" font-size="14.00" fill="#000000">is_mute </text>
<text text-anchor="start" x="105.8962" y="-746.9" font-family="Arial" font-size="14.00" fill="#666666">[tinyint(1)]</text>
<polygon fill="none" stroke="#000000" points="46,-705.5 46,-735.5 450,-735.5 450,-705.5 46,-705.5"/>
<text text-anchor="start" x="53" y="-716.9" font-family="Arial" font-size="14.00" fill="#000000">duration </text>
<text text-anchor="start" x="107.4614" y="-716.9" font-family="Arial" font-size="14.00" fill="#666666">[bigint]</text>
<polygon fill="none" stroke="#000000" points="46,-675.5 46,-705.5 450,-705.5 450,-675.5 46,-675.5"/>
<text text-anchor="start" x="53" y="-686.9" font-family="Arial" font-size="14.00" fill="#000000">metric </text>
<text text-anchor="start" x="94.9916" y="-686.9" font-family="Arial" font-size="14.00" fill="#666666">[varchar(128)]</text>
<polygon fill="none" stroke="#000000" points="46,-645.5 46,-675.5 450,-675.5 450,-645.5 46,-645.5"/>
<text text-anchor="start" x="53" y="-656.9" font-family="Arial" font-size="14.00" fill="#000000">operator </text>
<text text-anchor="start" x="109.0154" y="-656.9" font-family="Arial" font-size="14.00" fill="#666666">[enum(&#39;&gt;&#39;,&#39;&lt;&#39;)]</text>
<polygon fill="none" stroke="#000000" points="46,-615.5 46,-645.5 450,-645.5 450,-615.5 46,-615.5"/>
<text text-anchor="start" x="53" y="-626.9" font-family="Arial" font-size="14.00" fill="#000000">warning </text>
<text text-anchor="start" x="105.8948" y="-626.9" font-family="Arial" font-size="14.00" fill="#666666">[double]</text>
<polygon fill="none" stroke="#000000" points="46,-585.5 46,-615.5 450,-615.5 450,-585.5 46,-585.5"/>
<text text-anchor="start" x="53" y="-596.9" font-family="Arial" font-size="14.00" fill="#000000">critical </text>
<text text-anchor="start" x="96.5442" y="-596.9" font-family="Arial" font-size="14.00" fill="#666666">[double]</text>
<polygon fill="none" stroke="#000000" points="46,-555.5 46,-585.5 450,-585.5 450,-555.5 46,-555.5"/>
<text text-anchor="start" x="53" y="-566.9" font-family="Arial" font-size="14.00" fill="#000000">max_check_attempts </text>
<text text-anchor="start" x="189.1444" y="-566.9" font-family="Arial" font-size="14.00" fill="#666666">[bigint]</text>
<polygon fill="none" stroke="#000000" points="46,-525.5 46,-555.5 450,-555.5 450,-525.5 46,-525.5"/>
<text text-anchor="start" x="53" y="-536.9" font-family="Arial" font-size="14.00" fill="#000000">scopes </text>
<text text-anchor="start" x="101.2384" y="-536.9" font-family="Arial" font-size="14.00" fill="#666666">[text]</text>
<polygon fill="none" stroke="#000000" points="46,-495.5 46,-525.5 450,-525.5 450,-495.5 46,-495.5"/>
<text text-anchor="start" x="53" y="-506.9" font-family="Arial" font-size="14.00" fill="#000000">exclude_scopes </text>
<text text-anchor="start" x="157.258" y="-506.9" font-family="Arial" font-size="14.00" fill="#666666">[text]</text>
<polygon fill="none" stroke="#000000" points="46,-465.5 46,-495.5 450,-495.5 450,-465.5 46,-465.5"/>
<text text-anchor="start" x="53" y="-476.9" font-family="Arial" font-size="14.00" fill="#000000">missing_duration_warning </text>
<text text-anchor="start" x="219.4698" y="-476.9" font-family="Arial" font-size="14.00" fill="#666666">[bigint]</text>
<polygon fill="none" stroke="#000000" points="46,-435.5 46,-465.5 450,-465.5 450,-435.5 46,-435.5"/>
<text text-anchor="start" x="53" y="-446.9" font-family="Arial" font-size="14.00" fill="#000000">missing_duration_critical </text>
<text text-anchor="start" x="210.1192" y="-446.9" font-family="Arial" font-size="14.00" fill="#666666">[bigint]</text>
<polygon fill="none" stroke="#000000" points="46,-405.5 46,-435.5 450,-435.5 450,-405.5 46,-405.5"/>
<text text-anchor="start" x="53" y="-416.9" font-family="Arial" font-size="14.00" fill="#000000">url </text>
<text text-anchor="start" x="72.4404" y="-416.9" font-family="Arial" font-size="14.00" fill="#666666">[text]</text>
<polygon fill="none" stroke="#000000" points="46,-375.5 46,-405.5 450,-405.5 450,-375.5 46,-375.5"/>
<text text-anchor="start" x="53" y="-386.9" font-family="Arial" font-size="14.00" fill="#000000">method </text>
<text text-anchor="start" x="103.5722" y="-386.9" font-family="Arial" font-size="14.00" fill="#666666">[enum(&#39;GET&#39;,&#39;PUT&#39;,&#39;POST&#39;,&#39;DELETE&#39;,&#39;&#39;)]</text>
<polygon fill="none" stroke="#000000" points="46,-345.5 46,-375.5 450,-375.5 450,-345.5 46,-345.5"/>
<text text-anchor="start" x="53" y="-356.9" font-family="Arial" font-size="14.00" fill="#000000">service </text>
<text text-anchor="start" x="101.223" y="-356.9" font-family="Arial" font-size="14.00" fill="#666666">[text]</text>
<polygon fill="none" stroke="#000000" points="46,-315.5 46,-345.5 450,-345.5 450,-315.5 46,-315.5"/>
<text text-anchor="start" x="53" y="-326.9" font-family="Arial" font-size="14.00" fill="#000000">response_time_warning </text>
<text text-anchor="start" x="205.474" y="-326.9" font-family="Arial" font-size="14.00" fill="#666666">[bigint]</text>
<polygon fill="none" stroke="#000000" points="46,-285.5 46,-315.5 450,-315.5 450,-285.5 46,-285.5"/>
<text text-anchor="start" x="53" y="-296.9" font-family="Arial" font-size="14.00" fill="#000000">response_time_critical </text>
<text text-anchor="start" x="196.1234" y="-296.9" font-family="Arial" font-size="14.00" fill="#666666">[bigint]</text>
<polygon fill="none" stroke="#000000" points="46,-255.5 46,-285.5 450,-285.5 450,-255.5 46,-255.5"/>
<text text-anchor="start" x="53" y="-266.9" font-family="Arial" font-size="14.00" fill="#000000">response_time_duration </text>
<text text-anchor="start" x="207.0406" y="-266.9" font-family="Arial" font-size="14.00" fill="#666666">[bigint]</text>
<polygon fill="none" stroke="#000000" points="46,-225.5 46,-255.5 450,-255.5 450,-225.5 46,-225.5"/>
<text text-anchor="start" x="53" y="-236.9" font-family="Arial" font-size="14.00" fill="#000000">contains_string </text>
<text text-anchor="start" x="151.0238" y="-236.9" font-family="Arial" font-size="14.00" fill="#666666">[text]</text>
<polygon fill="none" stroke="#000000" points="46,-195.5 46,-225.5 450,-225.5 450,-195.5 46,-195.5"/>
<text text-anchor="start" x="53" y="-206.9" font-family="Arial" font-size="14.00" fill="#000000">certification_expiration_warning </text>
<text text-anchor="start" x="252.92" y="-206.9" font-family="Arial" font-size="14.00" fill="#666666">[bigint]</text>
<polygon fill="none" stroke="#000000" points="46,-165.5 46,-195.5 450,-195.5 450,-165.5 46,-165.5"/>
<text text-anchor="start" x="53" y="-176.9" font-family="Arial" font-size="14.00" fill="#000000">certification_expiration_critical </text>
<text text-anchor="start" x="243.5694" y="-176.9" font-family="Arial" font-size="14.00" fill="#666666">[bigint]</text>
<polygon fill="none" stroke="#000000" points="46,-135.5 46,-165.5 450,-165.5 450,-135.5 46,-135.5"/>
<text text-anchor="start" x="53" y="-146.9" font-family="Arial" font-size="14.00" fill="#000000">skip_certificate_verification </text>
<text text-anchor="start" x="224.1304" y="-146.9" font-family="Arial" font-size="14.00" fill="#666666">[tinyint(1)]</text>
<polygon fill="none" stroke="#000000" points="46,-105.5 46,-135.5 450,-135.5 450,-105.5 46,-105.5"/>
<text text-anchor="start" x="53" y="-116.9" font-family="Arial" font-size="14.00" fill="#000000">headers </text>
<text text-anchor="start" x="107.4642" y="-116.9" font-family="Arial" font-size="14.00" fill="#666666">[text]</text>
<polygon fill="none" stroke="#000000" points="46,-75.5 46,-105.5 450,-105.5 450,-75.5 46,-75.5"/>
<text text-anchor="start" x="53" y="-86.9" font-family="Arial" font-size="14.00" fill="#000000">request_body </text>
<text text-anchor="start" x="141.7026" y="-86.9" font-family="Arial" font-size="14.00" fill="#666666">[text]</text>
<polygon fill="none" stroke="#000000" points="46,-45.5 46,-75.5 450,-75.5 450,-45.5 46,-45.5"/>
<text text-anchor="start" x="53" y="-56.9" font-family="Arial" font-size="14.00" fill="#000000">expression </text>
<text text-anchor="start" x="124.5708" y="-56.9" font-family="Arial" font-size="14.00" fill="#666666">[text]</text>
<polygon fill="none" stroke="#000000" stroke-width="3" points="44.5,-44.5 44.5,-982.5 451.5,-982.5 451.5,-44.5 44.5,-44.5"/>
</g>
</g>
</svg>
