<?xml version="1.0" encoding="UTF-8" standalone="no"?>
<!DOCTYPE svg PUBLIC "-//W3C//DTD SVG 1.1//EN"
 "http://www.w3.org/Graphics/SVG/1.1/DTD/svg11.dtd">
<!-- Generated by graphviz version 2.40.1 (20161225.0304)
 -->
<!-- Title: notification_group_monitors Pages: 1 -->
<svg width="462pt" height="255pt"
 viewBox="0.00 0.00 462.00 255.00" xmlns="http://www.w3.org/2000/svg" xmlns:xlink="http://www.w3.org/1999/xlink">
<g id="graph0" class="graph" transform="scale(1 1) rotate(0) translate(4 251)">
<title>notification_group_monitors</title>
<polygon fill="#ffffff" stroke="transparent" points="-4,4 -4,-251 458,-251 458,4 -4,4"/>
<!-- notification_group_monitors -->
<g id="node1" class="node">
<title>notification_group_monitors</title>
<polygon fill="#efefef" stroke="transparent" points="46,-165.5 46,-200.5 408,-200.5 408,-165.5 46,-165.5"/>
<polygon fill="none" stroke="#000000" points="46,-165.5 46,-200.5 408,-200.5 408,-165.5 46,-165.5"/>
<text text-anchor="start" x="52.6915" y="-178.3" font-family="Arial Bold" font-size="18.00" fill="#000000">notification_group_monitors</text>
<text text-anchor="start" x="273.7405" y="-178.3" font-family="Arial" font-size="14.00" fill="#000000">    </text>
<text text-anchor="start" x="307.9453" y="-178.3" font-family="Arial" font-size="14.00" fill="#666666">[BASE TABLE]</text>
<polygon fill="none" stroke="#000000" points="46,-135.5 46,-165.5 408,-165.5 408,-135.5 46,-135.5"/>
<text text-anchor="start" x="53" y="-146.9" font-family="Arial" font-size="14.00" fill="#000000">org_id </text>
<text text-anchor="start" x="95.7882" y="-146.9" font-family="Arial" font-size="14.00" fill="#666666">[varchar(16)]</text>
<polygon fill="none" stroke="#000000" points="46,-105.5 46,-135.5 408,-135.5 408,-105.5 46,-105.5"/>
<text text-anchor="start" x="53" y="-116.9" font-family="Arial" font-size="14.00" fill="#000000">group_id </text>
<text text-anchor="start" x="111.3534" y="-116.9" font-family="Arial" font-size="14.00" fill="#666666">[varchar(16)]</text>
<polygon fill="none" stroke="#000000" points="46,-75.5 46,-105.5 408,-105.5 408,-75.5 46,-75.5"/>
<text text-anchor="start" x="53" y="-86.9" font-family="Arial" font-size="14.00" fill="#000000">monitor_id </text>
<text text-anchor="start" x="122.2286" y="-86.9" font-family="Arial" font-size="14.00" fill="#666666">[varchar(16)]</text>
<polygon fill="none" stroke="#000000" points="46,-45.5 46,-75.5 408,-75.5 408,-45.5 46,-45.5"/>
<text text-anchor="start" x="53" y="-56.9" font-family="Arial" font-size="14.00" fill="#000000">skip_default </text>
<text text-anchor="start" x="131.5806" y="-56.9" font-family="Arial" font-size="14.00" fill="#666666">[tinyint(1)]</text>
<polygon fill="none" stroke="#000000" stroke-width="3" points="44.5,-44.5 44.5,-202.5 409.5,-202.5 409.5,-44.5 44.5,-44.5"/>
</g>
</g>
</svg>
