<?xml version="1.0" encoding="UTF-8" standalone="no"?>
<!DOCTYPE svg PUBLIC "-//W3C//DTD SVG 1.1//EN"
 "http://www.w3.org/Graphics/SVG/1.1/DTD/svg11.dtd">
<!-- Generated by graphviz version 2.40.1 (20161225.0304)
 -->
<!-- Title: service_meta Pages: 1 -->
<svg width="348pt" height="255pt"
 viewBox="0.00 0.00 348.00 255.00" xmlns="http://www.w3.org/2000/svg" xmlns:xlink="http://www.w3.org/1999/xlink">
<g id="graph0" class="graph" transform="scale(1 1) rotate(0) translate(4 251)">
<title>service_meta</title>
<polygon fill="#ffffff" stroke="transparent" points="-4,4 -4,-251 344,-251 344,4 -4,4"/>
<!-- service_meta -->
<g id="node1" class="node">
<title>service_meta</title>
<polygon fill="#efefef" stroke="transparent" points="46,-165.5 46,-200.5 294,-200.5 294,-165.5 46,-165.5"/>
<polygon fill="none" stroke="#000000" points="46,-165.5 46,-200.5 294,-200.5 294,-165.5 46,-165.5"/>
<text text-anchor="start" x="52.7101" y="-178.3" font-family="Arial Bold" font-size="18.00" fill="#000000">service_meta</text>
<text text-anchor="start" x="159.7219" y="-178.3" font-family="Arial" font-size="14.00" fill="#000000">    </text>
<text text-anchor="start" x="193.9267" y="-178.3" font-family="Arial" font-size="14.00" fill="#666666">[BASE TABLE]</text>
<polygon fill="none" stroke="#000000" points="46,-135.5 46,-165.5 294,-165.5 294,-135.5 46,-135.5"/>
<text text-anchor="start" x="53" y="-146.9" font-family="Arial" font-size="14.00" fill="#000000">org_id </text>
<text text-anchor="start" x="95.7882" y="-146.9" font-family="Arial" font-size="14.00" fill="#666666">[varchar(16)]</text>
<polygon fill="none" stroke="#000000" points="46,-105.5 46,-135.5 294,-135.5 294,-105.5 46,-105.5"/>
<text text-anchor="start" x="53" y="-116.9" font-family="Arial" font-size="14.00" fill="#000000">service_name </text>
<text text-anchor="start" x="144.014" y="-116.9" font-family="Arial" font-size="14.00" fill="#666666">[varchar(16)]</text>
<polygon fill="none" stroke="#000000" points="46,-75.5 46,-105.5 294,-105.5 294,-75.5 46,-75.5"/>
<text text-anchor="start" x="53" y="-86.9" font-family="Arial" font-size="14.00" fill="#000000">namespace </text>
<text text-anchor="start" x="129.2468" y="-86.9" font-family="Arial" font-size="14.00" fill="#666666">[varchar(128)]</text>
<polygon fill="none" stroke="#000000" points="46,-45.5 46,-75.5 294,-75.5 294,-45.5 46,-45.5"/>
<text text-anchor="start" x="53" y="-56.9" font-family="Arial" font-size="14.00" fill="#000000">meta </text>
<text text-anchor="start" x="88.007" y="-56.9" font-family="Arial" font-size="14.00" fill="#666666">[text]</text>
<polygon fill="none" stroke="#000000" stroke-width="3" points="44.5,-44.5 44.5,-202.5 295.5,-202.5 295.5,-44.5 44.5,-44.5"/>
</g>
</g>
</svg>
